<mxfile host="app.diagrams.net" modified="2024-04-27T01:06:52.244Z" agent="Mozilla/5.0 (Windows NT 10.0; Win64; x64) AppleWebKit/537.36 (KHTML, like Gecko) Chrome/123.0.0.0 Safari/537.36" etag="-HAUTIGSyxwTgvnx-16j" version="23.1.7" type="github">
  <diagram id="C5RBs43oDa-KdzZeNtuy" name="Page-1">
    <mxGraphModel dx="883" dy="1144" grid="1" gridSize="10" guides="1" tooltips="1" connect="1" arrows="1" fold="1" page="1" pageScale="1" pageWidth="827" pageHeight="1169" math="0" shadow="0">
      <root>
        <mxCell id="WIyWlLk6GJQsqaUBKTNV-0" />
        <mxCell id="WIyWlLk6GJQsqaUBKTNV-1" parent="WIyWlLk6GJQsqaUBKTNV-0" />
        <mxCell id="pJlstx-pBEPp6N1fP3nN-0" value="Tile" style="swimlane;fontStyle=0;childLayout=stackLayout;horizontal=1;startSize=26;fillColor=none;horizontalStack=0;resizeParent=1;resizeParentMax=0;resizeLast=0;collapsible=1;marginBottom=0;whiteSpace=wrap;html=1;" vertex="1" parent="WIyWlLk6GJQsqaUBKTNV-1">
          <mxGeometry x="40" y="200" width="80" height="52" as="geometry" />
        </mxCell>
        <mxCell id="pJlstx-pBEPp6N1fP3nN-1" value="+ _: usize" style="text;strokeColor=none;fillColor=none;align=left;verticalAlign=top;spacingLeft=4;spacingRight=4;overflow=hidden;rotatable=0;points=[[0,0.5],[1,0.5]];portConstraint=eastwest;whiteSpace=wrap;html=1;" vertex="1" parent="pJlstx-pBEPp6N1fP3nN-0">
          <mxGeometry y="26" width="80" height="26" as="geometry" />
        </mxCell>
        <mxCell id="pJlstx-pBEPp6N1fP3nN-4" value="Position" style="swimlane;fontStyle=0;childLayout=stackLayout;horizontal=1;startSize=26;fillColor=none;horizontalStack=0;resizeParent=1;resizeParentMax=0;resizeLast=0;collapsible=1;marginBottom=0;whiteSpace=wrap;html=1;" vertex="1" parent="WIyWlLk6GJQsqaUBKTNV-1">
          <mxGeometry x="140" y="200" width="80" height="78" as="geometry">
            <mxRectangle x="320" y="720" width="80" height="30" as="alternateBounds" />
          </mxGeometry>
        </mxCell>
        <mxCell id="pJlstx-pBEPp6N1fP3nN-5" value="+ x: usize" style="text;strokeColor=none;fillColor=none;align=left;verticalAlign=top;spacingLeft=4;spacingRight=4;overflow=hidden;rotatable=0;points=[[0,0.5],[1,0.5]];portConstraint=eastwest;whiteSpace=wrap;html=1;" vertex="1" parent="pJlstx-pBEPp6N1fP3nN-4">
          <mxGeometry y="26" width="80" height="26" as="geometry" />
        </mxCell>
        <mxCell id="pJlstx-pBEPp6N1fP3nN-6" value="+ y: usize" style="text;strokeColor=none;fillColor=none;align=left;verticalAlign=top;spacingLeft=4;spacingRight=4;overflow=hidden;rotatable=0;points=[[0,0.5],[1,0.5]];portConstraint=eastwest;whiteSpace=wrap;html=1;" vertex="1" parent="pJlstx-pBEPp6N1fP3nN-4">
          <mxGeometry y="52" width="80" height="26" as="geometry" />
        </mxCell>
        <mxCell id="pJlstx-pBEPp6N1fP3nN-16" value="Color" style="swimlane;fontStyle=0;childLayout=stackLayout;horizontal=1;startSize=26;fillColor=none;horizontalStack=0;resizeParent=1;resizeParentMax=0;resizeLast=0;collapsible=1;marginBottom=0;whiteSpace=wrap;html=1;" vertex="1" parent="WIyWlLk6GJQsqaUBKTNV-1">
          <mxGeometry x="220" y="480" width="140" height="52" as="geometry">
            <mxRectangle x="260" y="720" width="140" height="30" as="alternateBounds" />
          </mxGeometry>
        </mxCell>
        <mxCell id="pJlstx-pBEPp6N1fP3nN-95" value="+ ..." style="text;strokeColor=none;fillColor=none;align=left;verticalAlign=top;spacingLeft=4;spacingRight=4;overflow=hidden;rotatable=0;points=[[0,0.5],[1,0.5]];portConstraint=eastwest;whiteSpace=wrap;html=1;" vertex="1" parent="pJlstx-pBEPp6N1fP3nN-16">
          <mxGeometry y="26" width="140" height="26" as="geometry" />
        </mxCell>
        <mxCell id="pJlstx-pBEPp6N1fP3nN-17" value="Sprite" style="swimlane;fontStyle=0;childLayout=stackLayout;horizontal=1;startSize=26;fillColor=none;horizontalStack=0;resizeParent=1;resizeParentMax=0;resizeLast=0;collapsible=1;marginBottom=0;whiteSpace=wrap;html=1;" vertex="1" parent="WIyWlLk6GJQsqaUBKTNV-1">
          <mxGeometry x="200" y="360" width="180" height="72" as="geometry">
            <mxRectangle x="320" y="720" width="80" height="30" as="alternateBounds" />
          </mxGeometry>
        </mxCell>
        <mxCell id="pJlstx-pBEPp6N1fP3nN-18" value="+ custom_size: &lt;a style=&quot;font-family: &amp;quot;Source Code Pro&amp;quot;, monospace; font-size: 1em; background-color: transparent; box-sizing: border-box; scrollbar-width: initial; scrollbar-color: var(--scrollbar-color); text-decoration-line: none;&quot; title=&quot;enum core::option::Option&quot; href=&quot;https://doc.rust-lang.org/nightly/core/option/enum.Option.html&quot; class=&quot;enum&quot;&gt;Option&lt;/a&gt;&lt;span style=&quot;font-family: &amp;quot;Source Code Pro&amp;quot;, monospace; font-size: 1em; background-color: var(--code-block-background-color);&quot;&gt;&amp;lt;&lt;/span&gt;&lt;a style=&quot;font-family: &amp;quot;Source Code Pro&amp;quot;, monospace; font-size: 1em; background-color: transparent; box-sizing: border-box; scrollbar-width: initial; scrollbar-color: var(--scrollbar-color); text-decoration-line: none;&quot; title=&quot;struct bevy::math::f32::Vec2&quot; href=&quot;https://docs.rs/bevy/latest/bevy/math/f32/struct.Vec2.html&quot; class=&quot;struct&quot;&gt;Vec2&lt;/a&gt;&lt;span style=&quot;font-family: &amp;quot;Source Code Pro&amp;quot;, monospace; font-size: 1em; background-color: var(--code-block-background-color);&quot;&gt;&amp;gt;&lt;/span&gt;" style="text;strokeColor=none;fillColor=none;align=left;verticalAlign=top;spacingLeft=4;spacingRight=4;overflow=hidden;rotatable=0;points=[[0,0.5],[1,0.5]];portConstraint=eastwest;whiteSpace=wrap;html=1;" vertex="1" parent="pJlstx-pBEPp6N1fP3nN-17">
          <mxGeometry y="26" width="180" height="24" as="geometry" />
        </mxCell>
        <mxCell id="pJlstx-pBEPp6N1fP3nN-19" value="..." style="text;strokeColor=none;fillColor=none;align=left;verticalAlign=top;spacingLeft=4;spacingRight=4;overflow=hidden;rotatable=0;points=[[0,0.5],[1,0.5]];portConstraint=eastwest;whiteSpace=wrap;html=1;" vertex="1" parent="pJlstx-pBEPp6N1fP3nN-17">
          <mxGeometry y="50" width="180" height="22" as="geometry" />
        </mxCell>
        <mxCell id="pJlstx-pBEPp6N1fP3nN-20" value="Transform" style="swimlane;fontStyle=0;childLayout=stackLayout;horizontal=1;startSize=26;fillColor=none;horizontalStack=0;resizeParent=1;resizeParentMax=0;resizeLast=0;collapsible=1;marginBottom=0;whiteSpace=wrap;html=1;" vertex="1" parent="WIyWlLk6GJQsqaUBKTNV-1">
          <mxGeometry x="414" y="260" width="160" height="104" as="geometry" />
        </mxCell>
        <mxCell id="pJlstx-pBEPp6N1fP3nN-21" value="+&amp;nbsp;translation: &lt;a style=&quot;font-family: &amp;quot;Source Code Pro&amp;quot;, monospace; font-size: 1em; background-color: transparent; box-sizing: border-box; scrollbar-width: initial; scrollbar-color: var(--scrollbar-color); text-decoration-line: none;&quot; title=&quot;struct bevy::math::f32::Vec3&quot; href=&quot;https://docs.rs/bevy/latest/bevy/math/f32/struct.Vec3.html&quot; class=&quot;struct&quot;&gt;Vec3&lt;/a&gt;" style="text;strokeColor=none;fillColor=none;align=left;verticalAlign=top;spacingLeft=4;spacingRight=4;overflow=hidden;rotatable=0;points=[[0,0.5],[1,0.5]];portConstraint=eastwest;whiteSpace=wrap;html=1;" vertex="1" parent="pJlstx-pBEPp6N1fP3nN-20">
          <mxGeometry y="26" width="160" height="26" as="geometry" />
        </mxCell>
        <mxCell id="pJlstx-pBEPp6N1fP3nN-22" value="+&amp;nbsp;rotation: &lt;a style=&quot;font-family: &amp;quot;Source Code Pro&amp;quot;, monospace; font-size: 1em; background-color: transparent; box-sizing: border-box; scrollbar-width: initial; scrollbar-color: var(--scrollbar-color); text-decoration-line: none;&quot; title=&quot;struct bevy::math::f32::Quat&quot; href=&quot;https://docs.rs/bevy/latest/bevy/math/f32/struct.Quat.html&quot; class=&quot;struct&quot;&gt;Quat&lt;/a&gt;" style="text;strokeColor=none;fillColor=none;align=left;verticalAlign=top;spacingLeft=4;spacingRight=4;overflow=hidden;rotatable=0;points=[[0,0.5],[1,0.5]];portConstraint=eastwest;whiteSpace=wrap;html=1;" vertex="1" parent="pJlstx-pBEPp6N1fP3nN-20">
          <mxGeometry y="52" width="160" height="26" as="geometry" />
        </mxCell>
        <mxCell id="pJlstx-pBEPp6N1fP3nN-23" value="+&amp;nbsp;scale: &lt;a style=&quot;font-family: &amp;quot;Source Code Pro&amp;quot;, monospace; font-size: 1em; background-color: transparent; box-sizing: border-box; scrollbar-width: initial; scrollbar-color: var(--scrollbar-color); text-decoration-line: none;&quot; title=&quot;struct bevy::math::f32::Vec3&quot; href=&quot;https://docs.rs/bevy/latest/bevy/math/f32/struct.Vec3.html&quot; class=&quot;struct&quot;&gt;Vec3&lt;/a&gt;" style="text;strokeColor=none;fillColor=none;align=left;verticalAlign=top;spacingLeft=4;spacingRight=4;overflow=hidden;rotatable=0;points=[[0,0.5],[1,0.5]];portConstraint=eastwest;whiteSpace=wrap;html=1;" vertex="1" parent="pJlstx-pBEPp6N1fP3nN-20">
          <mxGeometry y="78" width="160" height="26" as="geometry" />
        </mxCell>
        <mxCell id="pJlstx-pBEPp6N1fP3nN-24" value="" style="endArrow=diamondThin;endFill=1;endSize=24;html=1;rounded=0;edgeStyle=elbowEdgeStyle;elbow=vertical;entryX=0.25;entryY=1;entryDx=0;entryDy=0;exitX=0.5;exitY=0;exitDx=0;exitDy=0;" edge="1" parent="WIyWlLk6GJQsqaUBKTNV-1" source="pJlstx-pBEPp6N1fP3nN-17" target="pJlstx-pBEPp6N1fP3nN-73">
          <mxGeometry width="160" relative="1" as="geometry">
            <mxPoint x="210" y="120" as="sourcePoint" />
            <mxPoint x="350" y="190" as="targetPoint" />
            <Array as="points">
              <mxPoint x="370" y="240" />
            </Array>
          </mxGeometry>
        </mxCell>
        <mxCell id="pJlstx-pBEPp6N1fP3nN-32" value="+ sprite" style="edgeLabel;html=1;align=left;verticalAlign=middle;resizable=0;points=[];" vertex="1" connectable="0" parent="pJlstx-pBEPp6N1fP3nN-24">
          <mxGeometry x="-0.8302" y="1" relative="1" as="geometry">
            <mxPoint x="11" y="5" as="offset" />
          </mxGeometry>
        </mxCell>
        <mxCell id="pJlstx-pBEPp6N1fP3nN-33" value="1" style="edgeLabel;html=1;align=right;verticalAlign=middle;resizable=0;points=[];" vertex="1" connectable="0" parent="pJlstx-pBEPp6N1fP3nN-24">
          <mxGeometry x="-0.7926" y="1" relative="1" as="geometry">
            <mxPoint x="-9" y="9" as="offset" />
          </mxGeometry>
        </mxCell>
        <mxCell id="pJlstx-pBEPp6N1fP3nN-27" value="" style="endArrow=diamondThin;endFill=1;endSize=24;html=1;rounded=0;elbow=vertical;exitX=0.25;exitY=0;exitDx=0;exitDy=0;edgeStyle=elbowEdgeStyle;entryX=0.75;entryY=1;entryDx=0;entryDy=0;" edge="1" parent="WIyWlLk6GJQsqaUBKTNV-1" source="pJlstx-pBEPp6N1fP3nN-20" target="pJlstx-pBEPp6N1fP3nN-73">
          <mxGeometry width="160" relative="1" as="geometry">
            <mxPoint x="444" y="322" as="sourcePoint" />
            <mxPoint x="410" y="212" as="targetPoint" />
          </mxGeometry>
        </mxCell>
        <mxCell id="pJlstx-pBEPp6N1fP3nN-34" value="+ transform" style="edgeLabel;html=1;align=left;verticalAlign=middle;resizable=0;points=[];" vertex="1" connectable="0" parent="pJlstx-pBEPp6N1fP3nN-27">
          <mxGeometry x="-0.8059" y="-1" relative="1" as="geometry">
            <mxPoint x="9" y="-16" as="offset" />
          </mxGeometry>
        </mxCell>
        <mxCell id="pJlstx-pBEPp6N1fP3nN-36" value="1" style="edgeLabel;html=1;align=right;verticalAlign=middle;resizable=0;points=[];" vertex="1" connectable="0" parent="pJlstx-pBEPp6N1fP3nN-27">
          <mxGeometry x="-0.831" y="1" relative="1" as="geometry">
            <mxPoint x="-9" y="2" as="offset" />
          </mxGeometry>
        </mxCell>
        <mxCell id="pJlstx-pBEPp6N1fP3nN-28" value="Entity (Tile)" style="html=1;whiteSpace=wrap;" vertex="1" parent="WIyWlLk6GJQsqaUBKTNV-1">
          <mxGeometry x="100" width="160" height="60" as="geometry" />
        </mxCell>
        <mxCell id="pJlstx-pBEPp6N1fP3nN-29" value="" style="endArrow=diamondThin;endFill=1;endSize=24;html=1;rounded=0;exitX=0.5;exitY=0;exitDx=0;exitDy=0;edgeStyle=elbowEdgeStyle;elbow=vertical;entryX=0.25;entryY=1;entryDx=0;entryDy=0;" edge="1" parent="WIyWlLk6GJQsqaUBKTNV-1" source="pJlstx-pBEPp6N1fP3nN-0" target="pJlstx-pBEPp6N1fP3nN-28">
          <mxGeometry width="160" relative="1" as="geometry">
            <mxPoint x="470" y="289" as="sourcePoint" />
            <mxPoint x="570" y="200" as="targetPoint" />
          </mxGeometry>
        </mxCell>
        <mxCell id="pJlstx-pBEPp6N1fP3nN-30" value="" style="endArrow=diamondThin;endFill=1;endSize=24;html=1;rounded=0;edgeStyle=elbowEdgeStyle;elbow=vertical;" edge="1" parent="WIyWlLk6GJQsqaUBKTNV-1" source="pJlstx-pBEPp6N1fP3nN-4" target="pJlstx-pBEPp6N1fP3nN-28">
          <mxGeometry width="160" relative="1" as="geometry">
            <mxPoint x="230" y="150" as="sourcePoint" />
            <mxPoint x="390" y="150" as="targetPoint" />
          </mxGeometry>
        </mxCell>
        <mxCell id="pJlstx-pBEPp6N1fP3nN-31" value="" style="endArrow=diamondThin;endFill=1;endSize=24;html=1;rounded=0;exitX=0.5;exitY=0;exitDx=0;exitDy=0;edgeStyle=elbowEdgeStyle;elbow=vertical;entryX=0.75;entryY=1;entryDx=0;entryDy=0;" edge="1" parent="WIyWlLk6GJQsqaUBKTNV-1" source="pJlstx-pBEPp6N1fP3nN-73" target="pJlstx-pBEPp6N1fP3nN-28">
          <mxGeometry width="160" relative="1" as="geometry">
            <mxPoint x="349.98000000000013" y="157" as="sourcePoint" />
            <mxPoint x="390" y="150" as="targetPoint" />
          </mxGeometry>
        </mxCell>
        <mxCell id="pJlstx-pBEPp6N1fP3nN-37" value="" style="endArrow=diamondThin;endFill=1;endSize=24;html=1;rounded=0;edgeStyle=elbowEdgeStyle;elbow=vertical;" edge="1" parent="WIyWlLk6GJQsqaUBKTNV-1" source="pJlstx-pBEPp6N1fP3nN-16" target="pJlstx-pBEPp6N1fP3nN-17">
          <mxGeometry width="160" relative="1" as="geometry">
            <mxPoint x="190" y="410" as="sourcePoint" />
            <mxPoint x="350" y="410" as="targetPoint" />
          </mxGeometry>
        </mxCell>
        <mxCell id="pJlstx-pBEPp6N1fP3nN-38" value="+ color" style="edgeLabel;html=1;align=left;verticalAlign=middle;resizable=0;points=[];" vertex="1" connectable="0" parent="pJlstx-pBEPp6N1fP3nN-37">
          <mxGeometry x="-0.7341" y="1" relative="1" as="geometry">
            <mxPoint x="11" y="-4" as="offset" />
          </mxGeometry>
        </mxCell>
        <mxCell id="pJlstx-pBEPp6N1fP3nN-39" value="1" style="edgeLabel;html=1;align=right;verticalAlign=middle;resizable=0;points=[];" vertex="1" connectable="0" parent="pJlstx-pBEPp6N1fP3nN-37">
          <mxGeometry x="-0.6722" y="2" relative="1" as="geometry">
            <mxPoint x="-8" y="-2" as="offset" />
          </mxGeometry>
        </mxCell>
        <mxCell id="pJlstx-pBEPp6N1fP3nN-42" value="Text" style="swimlane;fontStyle=0;childLayout=stackLayout;horizontal=1;startSize=26;fillColor=none;horizontalStack=0;resizeParent=1;resizeParentMax=0;resizeLast=0;collapsible=1;marginBottom=0;whiteSpace=wrap;html=1;" vertex="1" parent="WIyWlLk6GJQsqaUBKTNV-1">
          <mxGeometry x="620" y="240.17000000000002" width="140" height="50" as="geometry">
            <mxRectangle x="320" y="720" width="80" height="30" as="alternateBounds" />
          </mxGeometry>
        </mxCell>
        <mxCell id="pJlstx-pBEPp6N1fP3nN-43" value="+ ..." style="text;strokeColor=none;fillColor=none;align=left;verticalAlign=top;spacingLeft=4;spacingRight=4;overflow=hidden;rotatable=0;points=[[0,0.5],[1,0.5]];portConstraint=eastwest;whiteSpace=wrap;html=1;" vertex="1" parent="pJlstx-pBEPp6N1fP3nN-42">
          <mxGeometry y="26" width="140" height="24" as="geometry" />
        </mxCell>
        <mxCell id="pJlstx-pBEPp6N1fP3nN-49" value="" style="endArrow=diamondThin;endFill=1;endSize=24;html=1;rounded=0;edgeStyle=elbowEdgeStyle;elbow=vertical;" edge="1" parent="WIyWlLk6GJQsqaUBKTNV-1" source="pJlstx-pBEPp6N1fP3nN-42" target="pJlstx-pBEPp6N1fP3nN-59">
          <mxGeometry width="160" relative="1" as="geometry">
            <mxPoint x="740" y="310" as="sourcePoint" />
            <mxPoint x="620" y="190" as="targetPoint" />
            <Array as="points">
              <mxPoint x="580" y="160" />
              <mxPoint x="738" y="240" />
            </Array>
          </mxGeometry>
        </mxCell>
        <mxCell id="pJlstx-pBEPp6N1fP3nN-50" value="+ text" style="edgeLabel;html=1;align=left;verticalAlign=middle;resizable=0;points=[];" vertex="1" connectable="0" parent="pJlstx-pBEPp6N1fP3nN-49">
          <mxGeometry x="-0.8302" y="1" relative="1" as="geometry">
            <mxPoint x="11" y="-4" as="offset" />
          </mxGeometry>
        </mxCell>
        <mxCell id="pJlstx-pBEPp6N1fP3nN-51" value="1" style="edgeLabel;html=1;align=right;verticalAlign=middle;resizable=0;points=[];" vertex="1" connectable="0" parent="pJlstx-pBEPp6N1fP3nN-49">
          <mxGeometry x="-0.7926" y="1" relative="1" as="geometry">
            <mxPoint x="-9" y="-3" as="offset" />
          </mxGeometry>
        </mxCell>
        <mxCell id="pJlstx-pBEPp6N1fP3nN-55" value="" style="endArrow=diamondThin;endFill=1;endSize=24;html=1;rounded=0;edgeStyle=elbowEdgeStyle;elbow=vertical;" edge="1" parent="WIyWlLk6GJQsqaUBKTNV-1" source="pJlstx-pBEPp6N1fP3nN-69" target="pJlstx-pBEPp6N1fP3nN-42">
          <mxGeometry width="160" relative="1" as="geometry">
            <mxPoint x="710" y="340.17" as="sourcePoint" />
            <mxPoint x="870" y="381.17" as="targetPoint" />
          </mxGeometry>
        </mxCell>
        <mxCell id="pJlstx-pBEPp6N1fP3nN-56" value="+ sections" style="edgeLabel;html=1;align=left;verticalAlign=middle;resizable=0;points=[];" vertex="1" connectable="0" parent="pJlstx-pBEPp6N1fP3nN-55">
          <mxGeometry x="-0.7341" y="1" relative="1" as="geometry">
            <mxPoint x="11" y="-3" as="offset" />
          </mxGeometry>
        </mxCell>
        <mxCell id="pJlstx-pBEPp6N1fP3nN-57" value="*" style="edgeLabel;html=1;align=right;verticalAlign=middle;resizable=0;points=[];" vertex="1" connectable="0" parent="pJlstx-pBEPp6N1fP3nN-55">
          <mxGeometry x="-0.6722" y="2" relative="1" as="geometry">
            <mxPoint x="-8" y="-2" as="offset" />
          </mxGeometry>
        </mxCell>
        <mxCell id="pJlstx-pBEPp6N1fP3nN-59" value="Text2dBundle" style="swimlane;fontStyle=0;childLayout=stackLayout;horizontal=1;startSize=26;fillColor=none;horizontalStack=0;resizeParent=1;resizeParentMax=0;resizeLast=0;collapsible=1;marginBottom=0;whiteSpace=wrap;html=1;" vertex="1" parent="WIyWlLk6GJQsqaUBKTNV-1">
          <mxGeometry x="540" y="120" width="160" height="52" as="geometry">
            <mxRectangle x="440" y="120" width="110" height="30" as="alternateBounds" />
          </mxGeometry>
        </mxCell>
        <mxCell id="pJlstx-pBEPp6N1fP3nN-60" value="+ ..." style="text;strokeColor=none;fillColor=none;align=left;verticalAlign=top;spacingLeft=4;spacingRight=4;overflow=hidden;rotatable=0;points=[[0,0.5],[1,0.5]];portConstraint=eastwest;whiteSpace=wrap;html=1;" vertex="1" parent="pJlstx-pBEPp6N1fP3nN-59">
          <mxGeometry y="26" width="160" height="26" as="geometry" />
        </mxCell>
        <mxCell id="pJlstx-pBEPp6N1fP3nN-69" value="TextSection" style="swimlane;fontStyle=0;childLayout=stackLayout;horizontal=1;startSize=26;fillColor=none;horizontalStack=0;resizeParent=1;resizeParentMax=0;resizeLast=0;collapsible=1;marginBottom=0;whiteSpace=wrap;html=1;" vertex="1" parent="WIyWlLk6GJQsqaUBKTNV-1">
          <mxGeometry x="620" y="340.17" width="140" height="52" as="geometry" />
        </mxCell>
        <mxCell id="pJlstx-pBEPp6N1fP3nN-70" value="+ value: String" style="text;strokeColor=none;fillColor=none;align=left;verticalAlign=top;spacingLeft=4;spacingRight=4;overflow=hidden;rotatable=0;points=[[0,0.5],[1,0.5]];portConstraint=eastwest;whiteSpace=wrap;html=1;" vertex="1" parent="pJlstx-pBEPp6N1fP3nN-69">
          <mxGeometry y="26" width="140" height="26" as="geometry" />
        </mxCell>
        <mxCell id="pJlstx-pBEPp6N1fP3nN-73" value="SpriteBundle" style="swimlane;fontStyle=0;childLayout=stackLayout;horizontal=1;startSize=26;fillColor=none;horizontalStack=0;resizeParent=1;resizeParentMax=0;resizeLast=0;collapsible=1;marginBottom=0;whiteSpace=wrap;html=1;" vertex="1" parent="WIyWlLk6GJQsqaUBKTNV-1">
          <mxGeometry x="250" y="120" width="160" height="52" as="geometry">
            <mxRectangle x="240" y="120" width="110" height="30" as="alternateBounds" />
          </mxGeometry>
        </mxCell>
        <mxCell id="pJlstx-pBEPp6N1fP3nN-74" value="+ ..." style="text;strokeColor=none;fillColor=none;align=left;verticalAlign=top;spacingLeft=4;spacingRight=4;overflow=hidden;rotatable=0;points=[[0,0.5],[1,0.5]];portConstraint=eastwest;whiteSpace=wrap;html=1;" vertex="1" parent="pJlstx-pBEPp6N1fP3nN-73">
          <mxGeometry y="26" width="160" height="26" as="geometry" />
        </mxCell>
        <mxCell id="pJlstx-pBEPp6N1fP3nN-75" value="TextStyle" style="swimlane;fontStyle=0;childLayout=stackLayout;horizontal=1;startSize=26;fillColor=none;horizontalStack=0;resizeParent=1;resizeParentMax=0;resizeLast=0;collapsible=1;marginBottom=0;whiteSpace=wrap;html=1;" vertex="1" parent="WIyWlLk6GJQsqaUBKTNV-1">
          <mxGeometry x="620" y="440" width="140" height="78" as="geometry" />
        </mxCell>
        <mxCell id="pJlstx-pBEPp6N1fP3nN-76" value="+&amp;nbsp;font: &lt;a style=&quot;font-family: &amp;quot;Source Code Pro&amp;quot;, monospace; font-size: 1em; background-color: transparent; box-sizing: border-box; scrollbar-width: initial; scrollbar-color: var(--scrollbar-color); text-decoration-line: none;&quot; title=&quot;enum bevy::asset::Handle&quot; href=&quot;https://docs.rs/bevy/latest/bevy/asset/enum.Handle.html&quot; class=&quot;enum&quot;&gt;Handle&lt;/a&gt;&lt;span style=&quot;font-family: &amp;quot;Source Code Pro&amp;quot;, monospace; font-size: 1em; background-color: var(--code-block-background-color);&quot;&gt;&amp;lt;&lt;/span&gt;&lt;a style=&quot;font-family: &amp;quot;Source Code Pro&amp;quot;, monospace; font-size: 1em; background-color: transparent; box-sizing: border-box; scrollbar-width: initial; scrollbar-color: var(--scrollbar-color); text-decoration-line: none;&quot; title=&quot;struct bevy::text::Font&quot; href=&quot;https://docs.rs/bevy/latest/bevy/text/struct.Font.html&quot; class=&quot;struct&quot;&gt;Font&lt;/a&gt;&lt;span style=&quot;font-family: &amp;quot;Source Code Pro&amp;quot;, monospace; font-size: 1em; background-color: var(--code-block-background-color);&quot;&gt;&amp;gt;&lt;/span&gt;" style="text;strokeColor=none;fillColor=none;align=left;verticalAlign=top;spacingLeft=4;spacingRight=4;overflow=hidden;rotatable=0;points=[[0,0.5],[1,0.5]];portConstraint=eastwest;whiteSpace=wrap;html=1;" vertex="1" parent="pJlstx-pBEPp6N1fP3nN-75">
          <mxGeometry y="26" width="140" height="26" as="geometry" />
        </mxCell>
        <mxCell id="pJlstx-pBEPp6N1fP3nN-77" value="+&amp;nbsp;font_size: &lt;a style=&quot;font-family: &amp;quot;Source Code Pro&amp;quot;, monospace; font-size: 1em; background-color: transparent; box-sizing: border-box; scrollbar-width: initial; scrollbar-color: var(--scrollbar-color); text-decoration-line: none;&quot; href=&quot;https://doc.rust-lang.org/nightly/std/primitive.f32.html&quot; class=&quot;primitive&quot;&gt;f32&lt;/a&gt;" style="text;strokeColor=none;fillColor=none;align=left;verticalAlign=top;spacingLeft=4;spacingRight=4;overflow=hidden;rotatable=0;points=[[0,0.5],[1,0.5]];portConstraint=eastwest;whiteSpace=wrap;html=1;" vertex="1" parent="pJlstx-pBEPp6N1fP3nN-75">
          <mxGeometry y="52" width="140" height="26" as="geometry" />
        </mxCell>
        <mxCell id="pJlstx-pBEPp6N1fP3nN-79" value="" style="endArrow=diamondThin;endFill=1;endSize=24;html=1;rounded=0;edgeStyle=elbowEdgeStyle;elbow=vertical;" edge="1" parent="WIyWlLk6GJQsqaUBKTNV-1" source="pJlstx-pBEPp6N1fP3nN-75" target="pJlstx-pBEPp6N1fP3nN-70">
          <mxGeometry width="160" relative="1" as="geometry">
            <mxPoint x="538" y="666.17" as="sourcePoint" />
            <mxPoint x="658" y="478.17" as="targetPoint" />
          </mxGeometry>
        </mxCell>
        <mxCell id="pJlstx-pBEPp6N1fP3nN-80" value="+ style" style="edgeLabel;html=1;align=left;verticalAlign=middle;resizable=0;points=[];" vertex="1" connectable="0" parent="pJlstx-pBEPp6N1fP3nN-79">
          <mxGeometry x="-0.7341" y="1" relative="1" as="geometry">
            <mxPoint x="11" y="-4" as="offset" />
          </mxGeometry>
        </mxCell>
        <mxCell id="pJlstx-pBEPp6N1fP3nN-81" value="1" style="edgeLabel;html=1;align=right;verticalAlign=middle;resizable=0;points=[];" vertex="1" connectable="0" parent="pJlstx-pBEPp6N1fP3nN-79">
          <mxGeometry x="-0.6722" y="2" relative="1" as="geometry">
            <mxPoint x="-8" y="-2" as="offset" />
          </mxGeometry>
        </mxCell>
        <mxCell id="pJlstx-pBEPp6N1fP3nN-82" value="" style="endArrow=diamondThin;endFill=1;endSize=24;html=1;rounded=0;edgeStyle=elbowEdgeStyle;exitX=1;exitY=0.5;exitDx=0;exitDy=0;" edge="1" parent="WIyWlLk6GJQsqaUBKTNV-1" source="pJlstx-pBEPp6N1fP3nN-95" target="pJlstx-pBEPp6N1fP3nN-75">
          <mxGeometry width="160" relative="1" as="geometry">
            <mxPoint x="360" y="730" as="sourcePoint" />
            <mxPoint x="581.6666259765625" y="640" as="targetPoint" />
          </mxGeometry>
        </mxCell>
        <mxCell id="pJlstx-pBEPp6N1fP3nN-83" value="+ color" style="edgeLabel;html=1;align=left;verticalAlign=middle;resizable=0;points=[];" vertex="1" connectable="0" parent="pJlstx-pBEPp6N1fP3nN-82">
          <mxGeometry x="-0.7341" y="1" relative="1" as="geometry">
            <mxPoint x="-30" y="15" as="offset" />
          </mxGeometry>
        </mxCell>
        <mxCell id="pJlstx-pBEPp6N1fP3nN-84" value="1" style="edgeLabel;html=1;align=right;verticalAlign=middle;resizable=0;points=[];" vertex="1" connectable="0" parent="pJlstx-pBEPp6N1fP3nN-82">
          <mxGeometry x="-0.6722" y="2" relative="1" as="geometry">
            <mxPoint x="-32" y="-14" as="offset" />
          </mxGeometry>
        </mxCell>
        <mxCell id="pJlstx-pBEPp6N1fP3nN-96" value="Entity (Number)" style="html=1;whiteSpace=wrap;" vertex="1" parent="WIyWlLk6GJQsqaUBKTNV-1">
          <mxGeometry x="540" width="160" height="60" as="geometry" />
        </mxCell>
        <mxCell id="pJlstx-pBEPp6N1fP3nN-97" value="" style="endArrow=open;endFill=1;endSize=12;html=1;rounded=0;startArrow=open;startFill=0;startSize=12;edgeStyle=elbowEdgeStyle;" edge="1" parent="WIyWlLk6GJQsqaUBKTNV-1" source="pJlstx-pBEPp6N1fP3nN-28" target="pJlstx-pBEPp6N1fP3nN-96">
          <mxGeometry width="160" relative="1" as="geometry">
            <mxPoint x="200" y="270" as="sourcePoint" />
            <mxPoint x="360" y="270" as="targetPoint" />
          </mxGeometry>
        </mxCell>
        <mxCell id="pJlstx-pBEPp6N1fP3nN-98" value="parent" style="edgeLabel;html=1;align=center;verticalAlign=middle;resizable=0;points=[];" vertex="1" connectable="0" parent="pJlstx-pBEPp6N1fP3nN-97">
          <mxGeometry x="-0.8308" y="1" relative="1" as="geometry">
            <mxPoint x="9" y="-14" as="offset" />
          </mxGeometry>
        </mxCell>
        <mxCell id="pJlstx-pBEPp6N1fP3nN-99" value="child" style="edgeLabel;html=1;align=center;verticalAlign=middle;resizable=0;points=[];" vertex="1" connectable="0" parent="pJlstx-pBEPp6N1fP3nN-97">
          <mxGeometry x="0.6615" y="-1" relative="1" as="geometry">
            <mxPoint y="14" as="offset" />
          </mxGeometry>
        </mxCell>
        <mxCell id="pJlstx-pBEPp6N1fP3nN-100" value="" style="endArrow=diamondThin;endFill=1;endSize=24;html=1;rounded=0;edgeStyle=elbowEdgeStyle;elbow=vertical;" edge="1" parent="WIyWlLk6GJQsqaUBKTNV-1" source="pJlstx-pBEPp6N1fP3nN-59" target="pJlstx-pBEPp6N1fP3nN-96">
          <mxGeometry width="160" relative="1" as="geometry">
            <mxPoint x="430" y="148" as="sourcePoint" />
            <mxPoint x="250" y="60" as="targetPoint" />
          </mxGeometry>
        </mxCell>
        <mxCell id="pJlstx-pBEPp6N1fP3nN-66" value="" style="endArrow=diamondThin;endFill=1;endSize=24;html=1;rounded=0;elbow=vertical;exitX=0.75;exitY=0;exitDx=0;exitDy=0;edgeStyle=elbowEdgeStyle;" edge="1" parent="WIyWlLk6GJQsqaUBKTNV-1" source="pJlstx-pBEPp6N1fP3nN-20" target="pJlstx-pBEPp6N1fP3nN-59">
          <mxGeometry width="160" relative="1" as="geometry">
            <mxPoint x="434" y="532.5" as="sourcePoint" />
            <mxPoint x="580" y="180" as="targetPoint" />
          </mxGeometry>
        </mxCell>
        <mxCell id="pJlstx-pBEPp6N1fP3nN-67" value="+ transform" style="edgeLabel;html=1;align=left;verticalAlign=middle;resizable=0;points=[];" vertex="1" connectable="0" parent="pJlstx-pBEPp6N1fP3nN-66">
          <mxGeometry x="-0.8059" y="-1" relative="1" as="geometry">
            <mxPoint x="9" y="8" as="offset" />
          </mxGeometry>
        </mxCell>
        <mxCell id="pJlstx-pBEPp6N1fP3nN-68" value="1" style="edgeLabel;html=1;align=right;verticalAlign=middle;resizable=0;points=[];" vertex="1" connectable="0" parent="pJlstx-pBEPp6N1fP3nN-66">
          <mxGeometry x="-0.831" y="1" relative="1" as="geometry">
            <mxPoint x="-9" y="5" as="offset" />
          </mxGeometry>
        </mxCell>
        <mxCell id="pJlstx-pBEPp6N1fP3nN-106" value="into" style="endArrow=open;endSize=12;dashed=1;html=1;rounded=0;jumpStyle=gap;entryX=0;entryY=0.5;entryDx=0;entryDy=0;" edge="1" parent="WIyWlLk6GJQsqaUBKTNV-1" source="pJlstx-pBEPp6N1fP3nN-4" target="pJlstx-pBEPp6N1fP3nN-22">
          <mxGeometry x="0.8697" y="-8" width="160" relative="1" as="geometry">
            <mxPoint x="150" y="270" as="sourcePoint" />
            <mxPoint x="310" y="270" as="targetPoint" />
            <mxPoint as="offset" />
          </mxGeometry>
        </mxCell>
        <mxCell id="pJlstx-pBEPp6N1fP3nN-107" value="into" style="endArrow=open;endSize=12;dashed=1;html=1;rounded=0;jumpStyle=gap;edgeStyle=elbowEdgeStyle;entryX=0;entryY=0.25;entryDx=0;entryDy=0;" edge="1" parent="WIyWlLk6GJQsqaUBKTNV-1" source="pJlstx-pBEPp6N1fP3nN-0" target="pJlstx-pBEPp6N1fP3nN-16">
          <mxGeometry x="0.8697" y="-8" width="160" relative="1" as="geometry">
            <mxPoint x="230" y="209" as="sourcePoint" />
            <mxPoint x="428" y="308" as="targetPoint" />
            <Array as="points">
              <mxPoint x="80" y="510" />
            </Array>
            <mxPoint as="offset" />
          </mxGeometry>
        </mxCell>
      </root>
    </mxGraphModel>
  </diagram>
</mxfile>
